<?xml version="1.0" encoding="UTF-8" standalone="no"?>
<!DOCTYPE svg PUBLIC "-//W3C//DTD SVG 1.1//EN" "http://www.w3.org/Graphics/SVG/1.1/DTD/svg11.dtd">
<svg width="100%" height="100%" viewBox="0 0 567 222" version="1.1" xmlns="http://www.w3.org/2000/svg" xmlns:xlink="http://www.w3.org/1999/xlink" xml:space="preserve" xmlns:serif="http://www.serif.com/" style="fill-rule:evenodd;clip-rule:evenodd;stroke-linejoin:round;stroke-miterlimit:2;">
    <g id="Tenkai-logo" serif:id="Tenkai logo" transform="matrix(0.984467,0,0,0.883363,-11.8117,-76.7871)">
        <rect x="11.998" y="86.926" width="574.963" height="250.833" style="fill:none;"/>
        <g id="logo" transform="matrix(1,0,0,1,-0.15641,-0.879458)">
            <g id="Logo-tenkai" serif:id="Logo tenkai" transform="matrix(1.62884,0,0,-1.81526,4.13684,368.414)">
                <g id="g3394">
                    <g id="Point-i-4799BC" serif:id="Point i 4799BC" transform="matrix(1,0,0,1,341.99,147.348)">
                        <path id="path3410" d="M0,0C0,1.706 0.19,1.895 1.895,1.895L13.783,1.895L13.783,-8.27C13.783,-9.976 13.593,-10.165 11.888,-10.165L0,-10.165L0,0Z" style="fill:rgb(71,153,188);fill-rule:nonzero;"/>
                    </g>
                    <g id="barre-i" serif:id="barre i" transform="matrix(1,0,0,1,355.514,119.093)">
                        <path id="path3406" d="M0,0L0,-42.728C0,-49.62 0.518,-58.923 0.518,-58.923L-12.922,-58.234L-13.783,-43.072L-13.783,0L0,0Z" style="fill:rgb(96,97,99);fill-rule:nonzero;"/>
                    </g>
                    <g id="g3400" transform="matrix(1,0,0,1,291.422,119.093)">
                        <path id="path3402" d="M0,0L12.406,0L19.297,-9.648L21.026,0L33.079,0L33.079,-42.728C33.079,-49.62 33.598,-58.923 33.598,-58.923L21.02,-58.234L20.338,-45.666C15.946,-53.97 8.474,-59.44 0,-59.44C-15.816,-59.44 -26.36,-47.379 -26.36,-29.29C-26.36,-11.716 -15.816,0 0,0M2.757,-49.103C11.886,-49.103 19.297,-39.798 19.297,-28.427L19.297,-10.338L2.757,-10.338C-6.134,-10.338 -12.06,-17.918 -12.06,-29.29C-12.06,-41.178 -6.134,-49.103 2.757,-49.103" style="fill:rgb(96,97,99);fill-rule:nonzero;"/>
                    </g>
                </g>
                <g id="k">
                    <g id="Barre-k-4799BC" serif:id="Barre k 4799BC" transform="matrix(1,0,0,1,241.915,60.4791)">
                        <path id="path3390" d="M0,0L-25.271,30.126L-0.918,58.579L16.441,58.579L-11.134,30.175L19.36,0L0,0Z" style="fill:rgb(71,153,188);fill-rule:nonzero;"/>
                    </g>
                    <rect id="K-barre" serif:id="K barre" x="199.247" y="60.514" width="13.783" height="93.037" style="fill:rgb(96,97,99);fill-rule:nonzero;"/>
                </g>
                <g id="ten">
                    <g id="g3382" transform="matrix(1,0,0,1,123.442,119.093)">
                        <path id="path3384" d="M0,0L12.915,0L13.682,-13.714C18.35,-4.883 25.92,0.862 34.458,0.862C49.447,0.862 59.44,-6.374 59.44,-17.229L59.44,-58.578L45.657,-58.578L45.657,-19.814C45.657,-13.611 40.833,-9.476 33.596,-9.476C22.659,-9.476 13.783,-20.668 13.783,-34.458L13.783,-58.578L0,-58.578L0,0Z" style="fill:rgb(96,97,99);fill-rule:nonzero;"/>
                    </g>
                    <g id="g3378" transform="matrix(1,0,0,1,86.0551,69.9898)">
                        <path id="path3380" d="M0,0C5.846,0 11.598,1.212 16.367,4.594L16.367,-8.151C10.927,-9.727 5.665,-10.337 0,-10.337C-19.124,-10.337 -31.874,1.723 -31.874,19.814C-31.874,37.904 -20.158,49.965 -2.585,49.965C13.438,49.965 24.121,39.834 24.121,24.638L24.121,20.675C24.121,17.315 22.226,15.506 18.952,15.506L-17.828,15.506C-16.522,5.396 -10.372,0 0,0M-11.199,24.982L12.06,24.982C12.06,35.062 6.934,40.489 -2.585,40.489C-12.663,40.489 -18.091,33.252 -18.091,19.814C-18.091,19.014 -18.066,18.236 -18.018,17.482L-11.199,24.982Z" style="fill:rgb(96,97,99);fill-rule:nonzero;"/>
                    </g>
                    <g id="g3374" transform="matrix(1,0,0,1,20.5863,139.767)">
                        <path id="path3376" d="M0,0L0,-20.674L22.398,-20.674L22.398,-30.15L0,-30.15L0,-56.855C0,-65.815 3.196,-70.639 9.132,-70.639C14.978,-70.639 19.352,-69.428 24.121,-66.045L24.121,-78.273C18.767,-79.579 14.642,-80.114 9.132,-80.114C-5.763,-80.114 -13.783,-71.974 -13.783,-56.855L-13.783,-5.169L0,0Z" style="fill:rgb(96,97,99);fill-rule:nonzero;"/>
                    </g>
                </g>
            </g>
            <g id="Slogan" transform="matrix(1.62884,0,0,-1.81526,37.5753,334.999)">
                <path id="path3414" d="M0,0L5.092,19.246L10.185,0L14.876,0L23.115,27.464L17.165,27.464L12.53,4.005L7.324,27.464L2.861,27.464L-2.346,4.005L-6.98,27.464L-12.931,27.464L-4.692,0L0,0ZM28.403,8.953C28.386,9.203 28.378,9.461 28.378,9.726C28.378,14.19 30.181,16.593 33.528,16.593C36.69,16.593 38.391,14.79 38.391,11.443L30.667,11.443L28.403,8.953ZM28.466,8.296L40.68,8.296C41.767,8.296 42.397,8.897 42.397,10.013L42.397,11.329C42.397,16.375 38.849,19.74 33.528,19.74C27.692,19.74 23.802,15.734 23.802,9.726C23.802,3.719 28.035,-0.286 34.386,-0.286C36.267,-0.286 38.015,-0.083 39.822,0.44L39.822,4.673C38.238,3.549 36.328,3.147 34.386,3.147C30.942,3.147 28.9,4.938 28.466,8.296M46.802,0L50.807,0L51.041,4.402C52.501,1.574 54.978,-0.286 57.788,-0.286C63.04,-0.286 66.542,3.719 66.542,9.726C66.542,15.563 63.04,19.454 57.788,19.454L53.782,19.454L51.379,16.202L51.379,30.897L46.802,30.897L46.802,0ZM51.379,16.021L56.872,16.021C59.825,16.021 61.793,13.503 61.793,9.726C61.793,5.779 59.825,3.147 56.872,3.147C53.84,3.147 51.379,6.351 51.379,10.299L51.379,16.021ZM97.438,21.742C97.438,25.347 94.874,27.75 91.03,27.75C86.91,27.75 84.164,25.232 84.164,21.456C84.164,19.382 85.272,17.31 86.732,15.558C81.522,12.605 79.415,9.886 79.415,7.152C79.415,2.689 83.42,-0.286 89.428,-0.286C93.434,-0.286 97.073,1.453 99.748,4.28L106.021,-0.973L106.021,3.948L101.969,7.25C103.447,9.783 104.304,12.793 104.304,16.021L100.299,16.021C100.299,13.739 99.797,11.596 98.917,9.738L91.487,15.793C89.756,17.204 87.998,19.274 87.998,21.456C87.998,23.275 89.187,24.489 90.973,24.489C92.552,24.489 93.605,23.39 93.605,21.742L97.438,21.742ZM96.896,6.668C94.948,4.486 92.319,3.147 89.428,3.147C86.166,3.147 83.992,4.772 83.992,7.21C83.992,8.924 85.093,10.55 89.454,12.901L96.896,6.668ZM120.61,25.462L124.558,25.462C125.124,25.462 125.187,25.524 125.187,26.09L125.187,29.466L121.239,29.466C120.673,29.466 120.61,29.403 120.61,28.837L120.61,25.462ZM120.61,19.454L120.61,5.15L120.896,0.114L125.359,-0.114C125.359,-0.114 125.187,2.975 125.187,5.264L125.187,19.454L120.61,19.454ZM129.192,27.464L129.192,23.745L137.202,23.745L137.202,0L142.066,0L142.066,23.745L150.076,23.745L150.076,27.464L129.192,27.464ZM163.807,1.03C165.638,0.343 168.327,-0.286 170.387,-0.286C176.338,-0.286 179.542,1.817 179.542,5.722C179.542,9.898 175.639,10.965 172.275,11.866C170.006,12.474 168.098,13.343 168.098,14.59C168.098,15.78 169.601,16.421 172.39,16.421C174.564,16.421 176.51,15.678 178.111,14.533L178.111,19.11C176.281,19.568 174.506,19.74 172.676,19.74C166.911,19.74 163.807,17.898 163.807,14.476C163.807,9.985 167.88,8.856 171.246,7.954C173.58,7.328 175.25,6.555 175.25,5.264C175.25,3.822 173.878,3.033 170.959,3.033C168.842,3.033 166.038,3.89 163.807,5.493L163.807,1.03ZM183.089,9.726C183.089,3.719 187.094,-0.286 193.102,-0.286C199.109,-0.286 203.114,3.719 203.114,9.726C203.114,15.734 199.109,19.74 193.102,19.74C187.094,19.74 183.089,15.734 183.089,9.726M187.838,9.726C187.838,13.674 189.943,16.306 193.102,16.306C196.26,16.306 198.366,13.674 198.366,9.726C198.366,5.779 196.26,3.147 193.102,3.147C189.943,3.147 187.838,5.779 187.838,9.726M207.405,30.897L207.405,5.15L207.691,0.114L212.154,-0.114C212.154,-0.114 211.982,2.975 211.982,5.264L211.982,30.897L207.405,30.897ZM217.418,19.454L217.418,5.722C217.418,2.117 220.736,-0.286 225.714,-0.286C228.55,-0.286 231.063,1.622 232.613,4.554L232.868,0L237.157,0L237.157,19.454L232.58,19.454L232.58,11.443C232.58,6.864 229.632,3.147 226,3.147C223.597,3.147 221.995,4.52 221.995,6.58L221.995,19.454L217.418,19.454ZM242.764,24.603L242.764,7.438C242.764,2.418 245.427,-0.286 250.374,-0.286C252.203,-0.286 253.574,-0.108 255.351,0.326L255.351,4.386C253.767,3.263 252.315,2.861 250.374,2.861C248.402,2.861 247.341,4.463 247.341,7.438L247.341,16.306L254.779,16.306L254.779,19.454L247.341,19.454L247.341,26.319L242.764,24.603ZM259.928,25.462L263.876,25.462C264.442,25.462 264.505,25.524 264.505,26.09L264.505,29.466L260.558,29.466C259.99,29.466 259.928,29.403 259.928,28.837L259.928,25.462ZM259.928,19.454L259.928,5.15L260.214,0.114L264.677,-0.114C264.677,-0.114 264.505,2.975 264.505,5.264L264.505,19.454L259.928,19.454ZM268.796,9.726C268.796,3.719 272.801,-0.286 278.809,-0.286C284.817,-0.286 288.822,3.719 288.822,9.726C288.822,15.734 284.817,19.74 278.809,19.74C272.801,19.74 268.796,15.734 268.796,9.726M273.545,9.726C273.545,13.674 275.65,16.306 278.809,16.306C281.967,16.306 284.073,13.674 284.073,9.726C284.073,5.779 281.967,3.147 278.809,3.147C275.65,3.147 273.545,5.779 273.545,9.726M293.113,0L297.69,0L297.69,8.01C297.69,12.59 300.638,16.306 304.27,16.306C306.673,16.306 308.275,14.934 308.275,12.874L308.275,0L312.852,0L312.852,13.732C312.852,17.337 309.534,19.74 304.556,19.74C301.72,19.74 299.206,17.832 297.657,14.899L297.402,19.454L293.113,19.454L293.113,0ZM317.714,1.03C319.546,0.343 322.235,-0.286 324.294,-0.286C330.245,-0.286 333.45,1.817 333.45,5.722C333.45,9.898 329.547,10.965 326.182,11.866C323.914,12.474 322.006,13.343 322.006,14.59C322.006,15.78 323.508,16.421 326.297,16.421C328.471,16.421 330.417,15.678 332.019,14.533L332.019,19.11C330.188,19.568 328.414,19.74 326.583,19.74C320.818,19.74 317.714,17.898 317.714,14.476C317.714,9.985 321.787,8.856 325.153,7.954C327.488,7.328 329.158,6.555 329.158,5.264C329.158,3.822 327.785,3.033 324.867,3.033C322.75,3.033 319.946,3.89 317.714,5.493L317.714,1.03Z" style="fill:rgb(96,97,99);fill-rule:nonzero;"/>
            </g>
        </g>
    </g>
</svg>
